<svg width="16" height="17" viewBox="0 0 16 17" fill="none" xmlns="http://www.w3.org/2000/svg">
<path d="M8.00002 1.83337C6.16499 1.83337 4.66669 3.33168 4.66669 5.16671C4.66669 7.00173 6.16499 8.50004 8.00002 8.50004C9.83505 8.50004 11.3334 7.00173 11.3334 5.16671C11.3334 3.33168 9.83505 1.83337 8.00002 1.83337ZM4.16669 9.83337C3.34419 9.83337 2.66669 10.5109 2.66669 11.3334V11.7331C2.66669 12.7134 3.28826 13.5927 4.23635 14.1973C5.18444 14.8019 6.48163 15.1667 8.00002 15.1667C9.51841 15.1667 10.8156 14.8019 11.7637 14.1973C12.7118 13.5927 13.3334 12.7134 13.3334 11.7331V11.3334C13.3334 10.5109 12.6559 9.83337 11.8334 9.83337H4.16669Z" fill="black"/>
</svg>
