<svg width="24" height="25" viewBox="0 0 24 25" fill="none" xmlns="http://www.w3.org/2000/svg">
<g clip-path="url(#clip0_282_730)">
<path d="M20.1301 4.99977C18.0418 3.15914 15.3621 2.14551 12.5802 2.14551C11.6093 2.14551 10.643 2.26792 9.70852 2.51032C9.41401 2.58587 9.11707 2.67838 8.7971 2.78989C7.79963 3.14056 6.85144 3.63182 5.98082 4.24994C5.75337 4.41073 5.53238 4.58001 5.32392 4.75171C2.67772 6.93129 1.1603 10.1439 1.1603 13.5654C1.1603 17.7593 3.45259 21.6086 7.14353 23.61C7.32129 23.707 7.52006 23.8059 7.74913 23.913C9.27019 24.6249 10.8959 24.9848 12.5802 24.9848C13.7008 24.9848 14.8054 24.8216 15.8707 24.5008C15.8921 24.5041 15.9123 24.5089 15.9338 24.5089C15.9766 24.5089 16.0194 24.5024 16.0614 24.4895C16.2295 24.4362 16.3967 24.3796 16.5628 24.319C18.3759 23.654 20.0073 22.5212 21.2795 21.045C21.414 20.8891 21.5429 20.7311 21.6641 20.5752C21.7109 20.5142 21.7376 20.4435 21.7477 20.3695C23.2215 18.3883 24.0012 16.0419 24.0012 13.565C24.0012 10.5794 22.8543 7.75464 20.7712 5.6098C20.566 5.39972 20.3511 5.19369 20.1301 4.99896M12.5802 2.99754C15.1367 2.99754 17.6011 3.9227 19.5273 5.60415C19.3686 5.61223 19.2235 5.60415 19.1019 5.57142C18.8308 5.4983 18.5694 5.41952 18.281 5.33104C17.1045 4.9731 15.9948 4.63455 14.6898 5.04461C14.3674 5.1448 14.0883 5.27085 13.8188 5.39245L13.7986 5.40174C13.4754 5.54759 13.1858 5.67889 12.8924 5.73504C12.7955 5.75444 12.6973 5.76454 12.5975 5.76454C12.2541 5.76454 11.9002 5.63202 11.5148 5.36054C11.108 5.07329 10.8539 4.66404 10.5816 4.2257C10.3796 3.90048 10.1836 3.58617 9.9287 3.33327C10.7912 3.11066 11.6837 2.99754 12.5806 2.99754M7.61056 22.8921C7.59036 22.8816 7.57056 22.8707 7.55117 22.8602C4.13535 21.0083 2.01435 17.4458 2.01435 13.565C2.01435 10.3988 3.41866 7.42578 5.86689 5.40942C6.02405 5.27974 6.18888 5.15167 6.35856 5.02805C6.98153 5.05067 7.17424 5.07814 7.32735 5.99845C7.3629 6.21459 7.3427 6.4372 7.3221 6.67677C7.29261 6.99795 7.26392 7.32963 7.37583 7.66616C7.46471 7.93119 7.64086 8.1146 7.81013 8.29236C8.03071 8.52305 8.16605 8.68061 8.181 8.91048C8.23433 9.75201 7.31967 9.9831 6.11656 10.1964C6.0095 10.2166 5.90244 10.2352 5.79862 10.2546C5.48633 10.3136 5.19787 10.3782 4.96355 10.4736C4.35674 10.7192 3.99516 11.0585 3.85619 11.5114C3.61742 12.2924 4.14787 13.1408 4.6351 13.7148C5.35179 14.5604 5.75377 15.89 5.57117 16.8087C5.52511 17.0349 5.44552 17.2684 5.36715 17.4959C5.11828 18.2186 4.83589 19.0375 5.7065 19.7655C6.00425 20.0144 6.27978 20.1582 6.52339 20.2863C6.66318 20.3594 6.79124 20.4261 6.90679 20.5037C7.1605 20.6741 7.35321 20.8984 7.47845 21.3581C7.62146 21.8825 7.66631 22.3891 7.61096 22.8925M20.6343 20.4883C19.4558 21.8546 17.9473 22.903 16.2699 23.5187C16.2162 23.5381 16.1608 23.5575 16.1059 23.5769C15.2643 22.3851 13.8164 20.9622 12.221 20.5146C11.5358 20.3227 11.3492 20.0843 11.0098 19.6508C10.9076 19.5211 10.7916 19.3725 10.6446 19.2052C10.1937 18.6921 9.7158 18.4792 9.16393 18.2316C9.0395 18.1766 8.90982 18.1184 8.77569 18.0554C7.90507 17.6413 7.54066 16.9202 7.72448 15.9684C8.00486 14.5063 9.4334 13.9993 10.6599 13.9993C10.7351 13.9993 10.8078 14.0005 10.8801 14.0045C11.2045 14.0207 11.4999 14.0736 11.7645 14.1217C12.5179 14.2562 13.1684 14.3734 14.0188 13.5884C14.6167 13.0357 14.7185 12.4455 14.8163 11.873C14.8724 11.5373 14.9282 11.2201 15.0712 10.8772C15.1876 10.6028 15.4251 10.2243 15.6752 10.0429C15.8934 9.88372 16.0497 9.90634 16.2465 9.93502C16.3975 9.95926 16.5705 9.98593 16.7652 9.91078C17.128 9.76817 17.3344 9.49265 17.5352 9.2256C17.7986 8.87291 18.0483 8.54042 18.6785 8.50891C19.4405 8.47214 20.8727 8.91452 21.2956 9.66919C21.477 9.99361 21.4435 10.3289 21.1934 10.6937C21.006 10.9681 20.7878 11.1656 20.5765 11.3563L20.5737 11.3591C20.1891 11.7037 19.7936 12.0617 19.6813 12.826C19.5673 13.5969 19.8627 13.9067 20.1491 14.2089C20.3256 14.3948 20.4925 14.5701 20.6068 14.8735C20.7708 15.307 20.6141 15.7676 20.4485 16.2552C20.2945 16.7081 20.1341 17.1767 20.223 17.6631C20.2477 17.7944 20.2626 17.9508 20.278 18.118C20.3066 18.4259 20.6084 19.471 20.8508 20.2289C20.7805 20.3158 20.7082 20.4023 20.6347 20.4887M21.4564 19.2989C21.2686 18.6655 21.1381 18.1568 21.1272 18.0389C21.1098 17.8607 21.0928 17.6769 21.0621 17.5088C21.0141 17.241 21.1316 16.8951 21.2569 16.5279C21.4528 15.9486 21.6762 15.2929 21.4055 14.5725C21.2294 14.1075 20.9732 13.8381 20.7672 13.6203C20.5288 13.3694 20.4715 13.31 20.5244 12.9493C20.5935 12.4891 20.7894 12.313 21.1441 11.9926L21.1482 11.9894C21.1942 11.9478 21.2447 11.9025 21.2948 11.8556C21.3663 11.7886 21.4407 11.7191 21.5162 11.6407C21.5813 11.5736 21.6455 11.5029 21.7097 11.4254C21.774 11.3486 21.8374 11.2654 21.8992 11.1757C22.4826 10.3233 22.2386 9.60536 22.041 9.25267C21.8435 8.90079 21.5279 8.60708 21.1571 8.37033C20.358 7.84352 19.2849 7.59304 18.5905 7.62697C17.5615 7.67828 17.1078 8.28347 16.806 8.68545C16.6492 8.89432 16.5519 9.02077 16.4327 9.07612C16.4032 9.07329 16.3531 9.06562 16.3268 9.06198C16.0832 9.02522 15.6283 8.95815 15.127 9.32377C14.7181 9.62071 14.401 10.1346 14.2406 10.516C14.0572 10.9491 13.9897 11.3478 13.9295 11.7009C13.839 12.2281 13.7796 12.5756 13.395 12.9307C12.8565 13.4284 12.5672 13.3763 11.8687 13.2519C11.5823 13.1997 11.2579 13.1416 10.8777 13.1226C9.26534 13.041 7.24251 13.6894 6.84094 15.7777C6.61268 16.9602 7.02314 17.9556 7.96971 18.5733C8.10545 18.6659 8.25291 18.7499 8.41128 18.8254C8.55107 18.8925 8.68681 18.9527 8.8169 19.0109C9.11141 19.1422 9.35543 19.2525 9.5744 19.3963C9.71014 19.4904 9.83659 19.5995 9.95779 19.7377C10.0895 19.8876 10.1982 20.0253 10.2923 20.1473C10.5307 20.4499 10.7472 20.7259 11.1153 20.9561C11.3366 21.102 11.6146 21.2313 11.9919 21.3363C12.402 21.4514 12.8137 21.6546 13.2104 21.9116C13.9683 22.413 14.6684 23.1139 15.1948 23.8068C14.3436 24.0237 13.4685 24.1328 12.5822 24.1328C11.1355 24.1328 9.73761 23.8455 8.41977 23.2783C8.43431 23.1894 8.44805 23.1018 8.45774 23.0125C8.45855 23.008 8.45855 23.0032 8.45855 22.9984C8.46986 22.9075 8.47673 22.8149 8.48117 22.7228C8.48239 22.6913 8.48319 22.6594 8.484 22.6279C8.48683 22.5628 8.48804 22.4974 8.48683 22.4332C8.48683 22.3952 8.48562 22.3576 8.484 22.3213C8.48198 22.2602 8.47915 22.1996 8.47592 22.139C8.47269 22.1003 8.46986 22.0615 8.46501 22.0227C8.45976 21.9617 8.45249 21.9015 8.44481 21.8405C8.43956 21.8025 8.43431 21.7649 8.42825 21.7266C8.41815 21.6603 8.40563 21.5949 8.39391 21.5286C8.38664 21.4959 8.38098 21.4632 8.37371 21.4308C8.35311 21.3319 8.32967 21.2329 8.3022 21.1331C8.02102 20.1045 7.43562 19.7991 6.9185 19.5292C6.69428 19.4112 6.48138 19.3009 6.25554 19.1115C5.87618 18.7943 5.90366 18.5596 6.17514 17.7714C6.2616 17.5193 6.35088 17.2583 6.40866 16.9759C6.645 15.7898 6.18403 14.2211 5.28594 13.1634C4.8068 12.5974 4.57733 12.0734 4.67307 11.7607C4.68115 11.7373 4.68923 11.7146 4.70135 11.6912C4.73691 11.6241 4.79104 11.5607 4.86538 11.4997C4.94295 11.4355 5.04112 11.3745 5.16191 11.3175C5.20029 11.2993 5.24231 11.2816 5.28513 11.2634C5.51541 11.1709 5.898 11.1022 6.26806 11.0359C7.3419 10.8452 9.14131 10.5253 9.03344 8.85554C8.99749 8.29963 8.66863 7.95502 8.42785 7.70252C8.31351 7.58213 8.21453 7.47911 8.18625 7.39589C8.1301 7.22863 8.1503 7.00724 8.17333 6.74828C8.19676 6.48285 8.22423 6.18066 8.16929 5.85786C8.15393 5.7613 8.13575 5.67242 8.11717 5.58678C8.1103 5.5593 8.10384 5.53385 8.09657 5.50719C8.08323 5.45103 8.06829 5.39609 8.05293 5.34438C8.04405 5.3161 8.03475 5.28903 8.02667 5.26156C8.01051 5.2155 7.99516 5.17066 7.97779 5.12703C7.96769 5.10279 7.95759 5.07814 7.9483 5.05552C7.92891 5.01067 7.9079 4.96987 7.88729 4.92987C7.878 4.91331 7.86911 4.89432 7.85982 4.87776C7.82831 4.82362 7.79559 4.77312 7.76165 4.72707C7.75559 4.71979 7.75034 4.71293 7.74428 4.70565C7.71438 4.66808 7.68328 4.63132 7.64974 4.59859C7.63722 4.58526 7.62227 4.57314 7.60975 4.56102C7.58308 4.53638 7.55561 4.51133 7.52733 4.49032C7.51077 4.47901 7.49461 4.46689 7.47764 4.45558C7.44896 4.43619 7.41865 4.4176 7.38795 4.40023C7.37745 4.39498 7.36775 4.3869 7.35806 4.38165C7.84649 4.10248 8.35553 3.86372 8.87952 3.66697C8.89972 3.67586 8.92113 3.68353 8.94093 3.69121C9.32836 3.82372 9.56268 4.20025 9.86083 4.68101C10.1501 5.14521 10.4765 5.67202 11.0239 6.05784C11.5584 6.43518 12.0743 6.61859 12.5991 6.61859C13.1817 6.61859 13.6742 6.39558 14.1513 6.18025L13.9752 5.7916L14.1711 6.17096C14.4171 6.05986 14.6725 5.94472 14.946 5.85988C16 5.5286 16.8977 5.8017 18.0333 6.14834C18.3283 6.23802 18.5973 6.31963 18.8809 6.39599C18.9399 6.41134 18.9993 6.42427 19.0595 6.43356C19.0797 6.43679 19.0995 6.43841 19.1197 6.44083C19.1605 6.44608 19.2013 6.45174 19.2421 6.45497C19.2668 6.45618 19.2902 6.45699 19.3144 6.4578C19.3524 6.45982 19.39 6.46103 19.4288 6.46103C19.4546 6.46103 19.4809 6.45982 19.5063 6.45901C19.5439 6.4582 19.5807 6.45699 19.6182 6.45497C19.6457 6.45295 19.6716 6.45012 19.699 6.4481C19.7358 6.44487 19.7726 6.44164 19.8101 6.4376C19.8376 6.43477 19.8651 6.43235 19.8917 6.42871C19.9297 6.42386 19.9665 6.41942 20.0049 6.41336C20.0315 6.41013 20.0582 6.40609 20.0865 6.40286C20.1253 6.3968 20.162 6.39074 20.2008 6.38387L20.2852 6.37054C20.2953 6.36932 20.3042 6.3673 20.3139 6.36569C22.1432 8.32872 23.1484 10.8767 23.1484 13.5654C23.1484 15.627 22.5654 17.5912 21.456 19.2989" fill="black"/>
</g>
<defs>
<clipPath id="clip0_282_730">
<rect width="24.0008" height="24" fill="white" transform="translate(0 0.985474)"/>
</clipPath>
</defs>
</svg>
