<svg width="24" height="25" viewBox="0 0 24 25" fill="none" xmlns="http://www.w3.org/2000/svg">
<path d="M10.25 3.98547C6.25778 3.98547 3 7.24325 3 11.2355C3 15.2277 6.25778 18.4855 10.25 18.4855C11.8866 18.4855 13.3945 17.932 14.6104 17.0109L19.293 21.6925C19.3851 21.7885 19.4955 21.8651 19.6176 21.9179C19.7397 21.9707 19.8712 21.9986 20.0042 21.9999C20.1373 22.0013 20.2692 21.9761 20.3924 21.9258C20.5156 21.8755 20.6275 21.8011 20.7216 21.707C20.8156 21.613 20.89 21.5011 20.9403 21.3779C20.9906 21.2547 21.0158 21.1227 21.0144 20.9897C21.0131 20.8566 20.9852 20.7252 20.9324 20.6031C20.8796 20.481 20.803 20.3706 20.707 20.2784L16.0254 15.5958C16.9465 14.3799 17.5 12.8721 17.5 11.2355C17.5 7.24325 14.2422 3.98547 10.25 3.98547ZM10.25 5.98547C13.1613 5.98547 15.5 8.32413 15.5 11.2355C15.5 12.6333 14.957 13.8958 14.0742 14.8341C13.9883 14.8963 13.9128 14.9718 13.8506 15.0577C12.9121 15.9417 11.6489 16.4855 10.25 16.4855C7.33866 16.4855 5 14.1468 5 11.2355C5 8.32413 7.33866 5.98547 10.25 5.98547Z" fill="black"/>
</svg>
