<svg width="34" height="32" viewBox="0 0 34 32" fill="none" xmlns="http://www.w3.org/2000/svg">
<g clip-path="url(#clip0_789_627)">
<path d="M17.5663 32C17.5295 32 17.4923 31.9952 17.4555 31.9855L1.59917 27.7652C1.41107 27.7149 1.27954 27.5447 1.27954 27.3499V6.46873C1.27954 6.34062 1.3366 6.21928 1.43525 6.13758C1.53389 6.05588 1.66397 6.02253 1.7897 6.04621L17.5629 9.03573C17.7655 9.07392 17.912 9.25037 17.913 9.45631L17.9962 31.5683C17.9967 31.7022 17.9348 31.8284 17.8289 31.9101C17.7529 31.9686 17.6601 31.9995 17.5663 31.9995V32ZM2.13979 27.0192L17.134 31.0099L17.0542 9.81405L2.13979 6.98745V27.0192Z" fill="black"/>
<path d="M2.13979 27.0192L17.134 31.0099L17.0542 9.81405L2.13979 6.98745V27.0192Z" fill="#BDD9E0"/>
<path d="M17.5663 32C17.4788 32 17.3917 31.9729 17.3182 31.9212C17.2046 31.8409 17.1369 31.7109 17.1364 31.5717L17.0532 9.45969C17.0523 9.26245 17.1862 9.08987 17.3772 9.04153L32.5397 5.19296C32.6862 5.15574 32.8409 5.19828 32.9483 5.30415C33.076 5.43033 33.076 5.50139 33.076 5.84172V6.4987C33.0764 7.06431 33.0764 7.8726 33.0764 8.84236C33.0764 10.7819 33.0764 13.3672 33.0764 15.9526C33.0764 21.1233 33.0755 26.2941 33.0755 26.2941C33.0755 26.4768 32.9599 26.6393 32.7873 26.6997L17.708 31.9748C17.6615 31.9908 17.6137 31.999 17.5658 31.999L17.5663 32ZM17.9144 9.79229L17.9942 30.965L32.2157 25.9895C32.2157 23.6928 32.2176 9.17641 32.2162 6.16224L17.9144 9.79229Z" fill="black"/>
<path d="M17.9144 9.79229L17.9942 30.965L32.2157 25.9895C32.2157 23.6928 32.2176 9.17641 32.2162 6.16224L17.9144 9.79229Z" fill="#BDD9E0"/>
<path d="M17.4841 9.88801C17.4575 9.88801 17.4304 9.88559 17.4038 9.88028L10.1528 8.50638L8.77419 8.24387L1.63058 6.89028C1.43377 6.85305 1.2887 6.68482 1.28096 6.48468C1.27323 6.28454 1.40475 6.10567 1.59769 6.05298L17.2785 1.78963C17.3458 1.77126 17.4168 1.76981 17.485 1.7848L21.0372 2.5781L22.6064 2.92617L24.6929 3.39268L32.7398 5.19006C32.9342 5.23357 33.073 5.40422 33.0759 5.60339C33.0788 5.80257 32.9449 5.97757 32.7519 6.02639L17.5895 9.87448C17.5547 9.88318 17.5194 9.88753 17.4836 9.88753L17.4841 9.88801ZM3.62477 6.39283L8.93473 7.39981L10.3134 7.66231L17.4705 9.01833L30.7935 5.63723L23.2157 3.94475L22.4197 3.76637L20.8511 3.4183L17.4018 2.6482L3.62477 6.39283Z" fill="black"/>
<path d="M3.62477 6.39283L8.93473 7.39981L10.3134 7.66231L17.4705 9.01833L30.7935 5.63723L23.2157 3.94475L22.4197 3.76637L20.8511 3.4183L17.4018 2.6482L3.62477 6.39283Z" fill="#BDD9E0"/>
<path d="M9.45363 8.27336C9.26843 8.27336 9.09725 8.1525 9.04164 7.9659C8.97394 7.7382 9.10354 7.4989 9.33129 7.43122L23.6021 3.18818C23.8298 3.1205 24.0692 3.25006 24.1369 3.47775C24.2046 3.70545 24.075 3.94474 23.8472 4.01242L9.57597 8.25547C9.53487 8.26755 9.49377 8.27336 9.45315 8.27336H9.45363Z" fill="black"/>
<path d="M9.71227 27.521C9.64796 27.521 9.58316 27.5138 9.51836 27.4988L3.89844 26.2022C3.50869 26.1123 3.23645 25.7701 3.23645 25.3703V21.7639C3.23645 21.5024 3.35396 21.2587 3.55898 21.0958C3.76401 20.9329 4.02755 20.8729 4.28287 20.9319L9.90279 22.2285C10.2925 22.3184 10.5648 22.6607 10.5648 23.0604V26.6668C10.5648 26.9284 10.4473 27.172 10.2422 27.3349C10.089 27.4567 9.90279 27.521 9.71227 27.521ZM4.0967 25.3654L9.70453 26.6591V23.0648L4.0967 21.7711V25.3654Z" fill="black"/>
<path d="M4.0967 25.3654L9.70453 26.6591V23.0648L4.0967 21.7711V25.3654Z" fill="white"/>
</g>
<defs>
<clipPath id="clip0_789_627">
<rect width="32.4729" height="32" fill="white" transform="translate(0.604004)"/>
</clipPath>
</defs>
</svg>
