<svg width="33" height="32" viewBox="0 0 33 32" fill="none" xmlns="http://www.w3.org/2000/svg">
<g clip-path="url(#clip0_789_554)">
<path d="M15.2281 30.4562C23.6384 30.4562 30.4562 23.6384 30.4562 15.2281C30.4562 6.81786 23.6384 0 15.2281 0C6.81786 0 0 6.81786 0 15.2281C0 23.6384 6.81786 30.4562 15.2281 30.4562Z" fill="#BDD9E0"/>
<path d="M16.8367 31.9678C12.5962 31.9678 8.61067 30.3171 5.61444 27.3195C4.10189 25.8069 2.93094 24.0413 2.13327 22.0717C1.36351 20.1698 0.972717 18.1595 0.972717 16.0972C0.972717 14.0349 1.36304 12.0247 2.13327 10.1227C2.93046 8.15317 4.10189 6.38751 5.61444 4.87497C8.61161 1.87779 12.5971 0.226624 16.8358 0.226624C21.0744 0.226624 25.0604 1.87732 28.058 4.87497L29.9126 6.72957V2.51602C29.9126 2.23736 30.1392 2.01121 30.4174 2.01121C30.6956 2.01121 30.9222 2.23783 30.9222 2.51602V7.94879C30.9222 8.08362 30.8697 8.21042 30.7746 8.30552C30.7273 8.3533 30.671 8.38926 30.61 8.41291C30.5504 8.43941 30.4846 8.4536 30.4174 8.4536H24.9847C24.706 8.4536 24.4799 8.22698 24.4799 7.94879C24.4799 7.6706 24.7065 7.44397 24.9847 7.44397H29.1982L27.3436 5.58937C24.5371 2.78286 20.8052 1.23672 16.8353 1.23672C12.8654 1.23672 9.13488 2.78238 6.32837 5.58937C3.52611 8.39162 1.98282 12.1235 1.98282 16.0977C1.98282 20.0719 3.52611 23.8038 6.32837 26.606C9.1344 29.4125 12.8663 30.9582 16.8367 30.9582C17.1154 30.9582 17.3415 31.1848 17.3415 31.463C17.3415 31.7412 17.1149 31.9678 16.8367 31.9678Z" fill="black"/>
<path d="M12.1964 19.0173H8.98443C8.73557 19.0173 8.53308 18.8148 8.53308 18.5659C8.53308 17.7815 9.3298 17.2091 10.1729 16.6025C10.9091 16.0736 11.7413 15.4756 11.7413 14.8998C11.7413 14.324 11.3462 13.9375 10.7808 13.9375C9.66713 13.9375 9.45139 14.9026 9.42915 15.0195V15.0233C9.38989 15.2385 9.20111 15.3951 8.98017 15.3951C8.95509 15.3951 8.92955 15.3928 8.90494 15.3885C8.66413 15.3455 8.5028 15.1217 8.53733 14.8799C8.53781 14.8766 8.53828 14.8733 8.53875 14.87C8.6452 14.2355 9.25032 13.0352 10.7808 13.0352C11.843 13.0352 12.6435 13.8367 12.6435 14.8998C12.6435 15.9629 11.6556 16.6484 10.7004 17.3349C10.3607 17.579 9.96992 17.8596 9.71397 18.1146H12.1959C12.4448 18.1146 12.6473 18.3171 12.6473 18.5659C12.6473 18.8148 12.4448 19.0173 12.1959 19.0173H12.1964ZM9.43199 15.0067C9.43152 15.011 9.43057 15.0152 9.4301 15.0195C9.43152 15.0124 9.43199 15.0077 9.43199 15.0067Z" fill="black"/>
<path d="M16.2434 19.0173C15.9945 19.0173 15.7921 18.8148 15.7921 18.566V17.7144H13.4104C13.2429 17.7144 13.0896 17.6221 13.0111 17.474C13.0078 17.4679 13.0049 17.4622 13.0021 17.4561C12.9307 17.3042 12.9486 17.1263 13.0494 16.9924L15.8819 13.2155C15.9927 13.0708 16.1753 13.0064 16.3499 13.0481C16.3617 13.0509 16.3735 13.0542 16.3849 13.058C16.5699 13.1195 16.6938 13.2917 16.6938 13.4866V16.8126H17.1622C17.411 16.8126 17.6135 17.0151 17.6135 17.264C17.6135 17.5128 17.411 17.7153 17.1622 17.7153H16.6938V18.5669C16.6938 18.8158 16.4913 19.0183 16.2425 19.0183L16.2434 19.0173ZM14.3131 16.8121H15.7921V14.8402L14.3131 16.8121Z" fill="black"/>
<path d="M31.2667 11.3481C31.0443 11.3481 30.8423 11.208 30.7637 10.9994C30.6923 10.8045 30.6171 10.6114 30.539 10.4217C30.4884 10.2992 30.4927 10.1644 30.5447 10.048L30.5584 10.0158C30.5877 9.94625 30.6128 9.88616 30.68 9.81945C30.7566 9.74376 30.8569 9.69597 30.9643 9.68509C30.9762 9.68367 31.0003 9.6813 31.0306 9.6813C31.2548 9.6813 31.4469 9.80715 31.5316 10.0096C31.6068 10.1908 31.6849 10.3919 31.771 10.6252C31.8164 10.7482 31.8084 10.884 31.7507 10.9994L31.7384 11.0264C31.6357 11.2502 31.4819 11.323 31.3528 11.3396L31.3476 11.3405C31.3211 11.3452 31.2941 11.3476 31.2671 11.3476L31.2667 11.3481ZM31.3561 11.2615C31.5236 11.2511 31.674 11.1527 31.7478 11.0046C31.7379 11.0235 31.727 11.042 31.7147 11.06C31.6319 11.1787 31.4994 11.2525 31.3561 11.2615Z" fill="black"/>
<path d="M19.9782 31.6764C19.7255 31.6764 19.5046 31.4966 19.453 31.2487C19.4237 31.1134 19.4511 30.9648 19.5296 30.8451C19.6082 30.7254 19.7331 30.6412 19.8731 30.6128C20.2592 30.5333 20.6542 30.4345 21.045 30.319C21.0668 30.3129 21.0885 30.3077 21.1108 30.3044C21.1448 30.2992 21.1732 30.2987 21.1912 30.2987C21.4363 30.2987 21.6454 30.4529 21.7121 30.6819C21.7935 30.9667 21.6307 31.2648 21.3492 31.3485C20.9334 31.4711 20.5085 31.5775 20.0865 31.6646C20.0699 31.6679 20.0534 31.6702 20.0368 31.6721L20.0236 31.6735C20.0084 31.675 19.9928 31.6759 19.9777 31.6759L19.9782 31.6764ZM20.0647 31.5397L20.0605 31.5406C20.0605 31.5406 20.0633 31.5401 20.0647 31.5397Z" fill="black"/>
<path d="M23.5383 30.4676C23.3292 30.4676 23.1438 30.3512 23.0534 30.1634C22.9252 29.8989 23.0364 29.5781 23.3013 29.448C23.6661 29.2711 24.0252 29.0785 24.3696 28.8741C24.4775 28.8102 24.6066 28.7918 24.7282 28.823L24.8157 28.8457C24.9373 28.877 25.0414 28.955 25.1053 29.0634C25.2562 29.3184 25.1715 29.6486 24.917 29.8C24.548 30.0176 24.1633 30.2244 23.7716 30.4151C23.7366 30.4321 23.6997 30.4449 23.6618 30.4524L23.6349 30.4581C23.6027 30.4647 23.57 30.468 23.5374 30.468L23.5383 30.4676Z" fill="black"/>
<path d="M26.6921 28.4242C26.5341 28.4242 26.3903 28.3589 26.2862 28.2402C26.2838 28.2373 26.2814 28.2349 26.2791 28.2321C26.0894 28.0055 26.1192 27.6658 26.3458 27.4751C26.6538 27.2173 26.9556 26.9429 27.2433 26.66C27.3318 26.5729 27.451 26.5242 27.5749 26.5242H27.6648C27.7902 26.5242 27.9108 26.5738 27.9993 26.6628C28.0996 26.7631 28.1564 26.905 28.154 27.0512C28.1517 27.1932 28.0944 27.3289 27.9955 27.4255C27.6975 27.7197 27.3748 28.0135 27.0361 28.2988C26.9916 28.3367 26.94 28.3655 26.8847 28.3845L26.8444 28.3982C26.7952 28.4152 26.7432 28.4237 26.6907 28.4237L26.6921 28.4242Z" fill="black"/>
<path d="M29.2592 25.6801C29.1457 25.6801 29.0373 25.6446 28.9451 25.5779C28.8438 25.5046 28.7757 25.3939 28.7558 25.2699L28.7416 25.1805C28.7218 25.0561 28.752 24.9288 28.8263 24.8271C29.0643 24.5002 29.2905 24.1614 29.4981 23.8208C29.563 23.7143 29.6671 23.6382 29.7882 23.6079L29.8762 23.5861C30.0006 23.5554 30.1321 23.5762 30.2409 23.6438C30.4903 23.7995 30.5683 24.1302 30.415 24.3809C30.1908 24.7481 29.9481 25.1105 29.694 25.4587C29.6505 25.5183 29.5932 25.5675 29.527 25.6011L29.4745 25.6281C29.4078 25.6621 29.334 25.6801 29.2592 25.6801Z" fill="black"/>
<path d="M31.084 22.3967C31.0168 22.3967 30.9511 22.3844 30.8891 22.3603L30.8848 22.3584C30.7552 22.3068 30.6488 22.2009 30.5925 22.0684C30.5362 21.9359 30.5343 21.7859 30.5868 21.6573C30.7391 21.2792 30.8759 20.8955 30.9932 20.518C30.9937 20.5156 30.9946 20.5133 30.9956 20.5114C31.0679 20.2895 31.2737 20.1409 31.5079 20.1409C31.5453 20.1409 31.5832 20.1452 31.6196 20.1542C31.7681 20.1901 31.8968 20.2866 31.9721 20.4182C32.0444 20.5454 32.0624 20.6968 32.0208 20.834C31.8916 21.2499 31.7445 21.662 31.5827 22.0618C31.5023 22.2643 31.3064 22.3972 31.085 22.3972L31.084 22.3967ZM31.4649 22.0097L31.4635 22.013L31.4649 22.0097ZM30.706 21.7036C30.706 21.7036 30.7046 21.7074 30.7036 21.7093L30.706 21.7036Z" fill="black"/>
<path d="M32.0544 18.7661H32.0482C31.9039 18.7661 31.7672 18.7003 31.6778 18.5872L31.6201 18.5148C31.5396 18.4136 31.5041 18.2835 31.5221 18.1553C31.5765 17.7659 31.6163 17.3604 31.6404 16.9498C31.6541 16.6678 31.8878 16.4435 32.1727 16.4435C32.1807 16.4435 32.1883 16.4435 32.1963 16.444C32.3401 16.4511 32.4788 16.5178 32.5762 16.6266C32.6718 16.7331 32.7215 16.8741 32.7129 17.0136C32.6898 17.4371 32.6467 17.8723 32.5862 18.3043C32.5497 18.5674 32.3212 18.7665 32.0553 18.7665L32.0544 18.7661ZM32.5852 16.9999V17.008C32.5852 17.0051 32.5852 17.0028 32.5852 16.9999ZM31.7677 16.9578C31.7677 16.9578 31.7677 16.9611 31.7677 16.963V16.9578Z" fill="black"/>
<path d="M32.1182 15.0086H32.1145C31.8391 15.0086 31.6101 14.8018 31.5813 14.5279C31.5377 14.1253 31.4781 13.7217 31.4048 13.33C31.3826 13.2107 31.4067 13.0873 31.4729 12.9855L31.5212 12.9113C31.5652 12.8436 31.6253 12.7883 31.6962 12.7504C31.7644 12.714 31.8453 12.6946 31.9224 12.6946C32.1916 12.6946 32.4125 12.8744 32.4603 13.1317C32.5412 13.5609 32.6046 13.9938 32.6486 14.4167C32.6623 14.5487 32.6197 14.6807 32.5317 14.7796L32.518 14.7962C32.4508 14.8756 32.3387 15.0091 32.1182 15.0091V15.0086Z" fill="black"/>
<path d="M16.8367 32C16.5405 32 16.2997 31.7592 16.2997 31.463C16.2997 31.1668 16.5405 30.926 16.8367 30.926C17.0273 30.926 17.2298 30.9218 17.455 30.9132C17.4612 30.9132 17.4669 30.9132 17.473 30.9132C17.7616 30.9132 18.0029 31.1451 18.0128 31.4304C18.0128 31.436 18.0128 31.4412 18.0128 31.4469C18.0128 31.7383 17.7862 31.9754 17.4971 31.9867C17.2904 31.9957 17.0732 32 16.8362 32H16.8367ZM17.2459 31.4568L17.0671 31.463C17.0704 31.5581 17.1049 31.6442 17.1612 31.7119C17.2142 31.6428 17.2459 31.5562 17.2459 31.4625C17.2459 31.4606 17.2459 31.4587 17.2459 31.4564V31.4568ZM17.1503 31.1999C17.0978 31.2681 17.0671 31.3537 17.0671 31.4464H17.2459C17.2421 31.3528 17.2071 31.2671 17.1503 31.1999ZM17.4588 31.0405C17.4588 31.0405 17.456 31.0405 17.4546 31.0405H17.4588Z" fill="black"/>
<path d="M19.9644 31.6797C19.7108 31.6797 19.4894 31.499 19.4383 31.2506C19.3801 30.9606 19.5675 30.6776 19.8556 30.6166C20.2502 30.5348 20.6448 30.4359 21.0308 30.3223C21.0545 30.3152 21.0791 30.31 21.1037 30.3072C21.1349 30.3034 21.16 30.3025 21.1789 30.3025C21.423 30.3025 21.6322 30.4567 21.6989 30.6866C21.7812 30.9695 21.6184 31.2681 21.336 31.3523C20.9277 31.4725 20.5033 31.5789 20.0742 31.6688C20.0501 31.674 20.0259 31.6769 20.0013 31.6783H19.989C19.981 31.6792 19.973 31.6797 19.9649 31.6797H19.9644Z" fill="black"/>
<path d="M23.5246 30.4728C23.316 30.4728 23.13 30.3564 23.0397 30.1691C22.9777 30.0404 22.9696 29.8899 23.0174 29.7561C23.0652 29.6212 23.1622 29.5138 23.2909 29.4523C23.6505 29.2782 24.0095 29.0866 24.3573 28.8817C24.4642 28.8188 24.591 28.8004 24.7116 28.8302L24.7996 28.8519C24.925 28.8832 25.0319 28.9641 25.0963 29.0762C25.2415 29.3298 25.1554 29.6572 24.9047 29.8062C24.5328 30.0253 24.1477 30.2311 23.7583 30.4198C23.7257 30.4354 23.6916 30.4473 23.6566 30.4553L23.6292 30.4615C23.5951 30.469 23.5596 30.4733 23.5246 30.4733V30.4728Z" fill="black"/>
<path d="M26.6803 28.4341C26.5161 28.4341 26.3633 28.3608 26.2616 28.2335C26.1864 28.1389 26.1499 28.0197 26.1599 27.899L26.167 27.812C26.1764 27.6852 26.2365 27.5674 26.3349 27.4851C26.6458 27.2244 26.9481 26.9504 27.2334 26.6699C27.3228 26.5819 27.443 26.5322 27.5683 26.5341H27.6152C28.1223 26.5398 28.128 27.0039 28.128 27.0086V27.1018C28.1266 27.2277 28.076 27.3479 27.9861 27.4363C27.679 27.7387 27.3554 28.032 27.0247 28.3088C26.9831 28.3438 26.9353 28.3712 26.8842 28.3901L26.8435 28.4053C26.791 28.4247 26.7356 28.4346 26.6803 28.4346V28.4341Z" fill="black"/>
<path d="M29.2498 25.6924C29.1343 25.6924 29.0241 25.656 28.9309 25.5869C28.8169 25.5032 28.7412 25.3783 28.7194 25.2364C28.6977 25.0939 28.7331 24.952 28.8183 24.8361C29.0544 24.5134 29.281 24.1752 29.4911 23.8317C29.5573 23.7238 29.6638 23.6467 29.7868 23.6178L29.8748 23.597C29.9954 23.5686 30.1227 23.589 30.2287 23.6538C30.4766 23.8047 30.5584 24.1425 30.4075 24.3909C30.178 24.7651 29.9349 25.1285 29.6827 25.4724C29.6377 25.5339 29.5786 25.5836 29.5105 25.6172L29.4584 25.6428C29.3931 25.6749 29.3217 25.6915 29.2488 25.6915L29.2498 25.6924ZM29.5833 25.3939L29.581 25.3967L29.5833 25.3939Z" fill="black"/>
<path d="M31.0793 22.4095C31.0135 22.4095 30.9487 22.3977 30.8872 22.374C30.8853 22.3731 30.8829 22.3726 30.8811 22.3717C30.7472 22.3187 30.6421 22.216 30.5854 22.0835C30.5286 21.9511 30.5272 21.8044 30.5816 21.671C30.7349 21.292 30.8721 20.9083 30.9889 20.5308C31.0618 20.3032 31.2676 20.1532 31.5023 20.1532C31.5392 20.1532 31.5756 20.1575 31.6115 20.166C31.7615 20.2015 31.8912 20.298 31.9668 20.43C32.0397 20.5573 32.0577 20.7091 32.0161 20.8468C31.8878 21.2594 31.7407 21.6715 31.5775 22.0741C31.4975 22.2766 31.3012 22.4095 31.0798 22.4095H31.0793ZM30.7013 21.7164C30.7013 21.7164 30.6999 21.7202 30.6989 21.7221L30.7013 21.7164Z" fill="black"/>
<path d="M32.0525 18.7793H32.0464C31.9016 18.7793 31.7653 18.7131 31.6754 18.6L31.6182 18.5276C31.5378 18.4264 31.5027 18.2967 31.5207 18.1685C31.5761 17.7725 31.6163 17.3666 31.6404 16.9621C31.6579 16.6735 31.8869 16.4563 32.1732 16.4563C32.1802 16.4563 32.1878 16.4563 32.1949 16.4568C32.3425 16.4634 32.4774 16.5268 32.5748 16.6347C32.6713 16.7411 32.7201 16.8788 32.7125 17.0222C32.6879 17.4499 32.6448 17.8847 32.5843 18.3171C32.5474 18.5806 32.3189 18.7793 32.0535 18.7793H32.0525Z" fill="black"/>
<path d="M32.1201 15.0218H32.1164C31.8415 15.0218 31.6125 14.8156 31.5831 14.5416C31.541 14.1433 31.4819 13.7397 31.4072 13.3423C31.3854 13.2254 31.4081 13.1048 31.4715 13.004L31.5179 12.9302C31.6044 12.7921 31.7558 12.7083 31.9186 12.7083H31.9238C32.1935 12.7083 32.4154 12.8876 32.4627 13.145C32.5426 13.5651 32.606 13.998 32.6505 14.429C32.6637 14.5582 32.6235 14.6864 32.5407 14.7839L32.5336 14.7924C32.4532 14.8894 32.343 15.0223 32.1197 15.0223L32.1201 15.0218ZM31.5325 13.3186L31.5335 13.3224L31.5325 13.3186Z" fill="black"/>
<path d="M31.2667 11.3481C31.0443 11.3481 30.8423 11.208 30.7637 10.9994C30.6923 10.8045 30.6171 10.6114 30.539 10.4217C30.4884 10.2992 30.4927 10.1644 30.5447 10.048L30.5584 10.0158C30.5877 9.94625 30.6128 9.88616 30.68 9.81945C30.7566 9.74376 30.8569 9.69597 30.9643 9.68509C30.9762 9.68367 31.0003 9.6813 31.0306 9.6813C31.2548 9.6813 31.4469 9.80715 31.5316 10.0096C31.6068 10.1908 31.6849 10.3919 31.771 10.6252C31.8164 10.7482 31.8084 10.884 31.7507 10.9994L31.7384 11.0264C31.6357 11.2502 31.4819 11.323 31.3528 11.3396L31.3476 11.3405C31.3211 11.3452 31.2941 11.3476 31.2671 11.3476L31.2667 11.3481ZM31.3561 11.2615C31.5236 11.2511 31.674 11.1527 31.7478 11.0046C31.7379 11.0235 31.727 11.042 31.7147 11.06C31.6319 11.1787 31.4994 11.2525 31.3561 11.2615Z" fill="black"/>
<path d="M20.0411 13.8178L18.9175 18.4448C18.8801 18.5972 18.8474 18.7178 18.8191 18.8058C18.7911 18.8943 18.7481 18.9629 18.6908 19.0126C18.6331 19.0618 18.5499 19.0868 18.4401 19.0868C18.1671 19.0868 18.0309 18.969 18.0309 18.7339C18.0309 18.6724 18.0573 18.5186 18.1113 18.2726L19.2311 13.6456C19.2898 13.3995 19.3461 13.2311 19.3996 13.1398C19.453 13.049 19.5576 13.0035 19.7128 13.0035C19.8467 13.0035 19.9489 13.0357 20.0198 13.1001C20.0908 13.1644 20.1263 13.2524 20.1263 13.365C20.1263 13.4478 20.0984 13.5992 20.0421 13.8182L20.0411 13.8178Z" fill="black"/>
<path d="M21.5101 13.1597H24.1828C24.4397 13.1597 24.6256 13.1999 24.7406 13.2799C24.8555 13.3603 24.9132 13.4928 24.9132 13.6773C24.9132 13.7899 24.8456 13.938 24.7108 14.1229C24.5754 14.3075 24.4217 14.5114 24.2495 14.7352C24.0768 14.9585 23.8989 15.2362 23.7158 15.5678C23.5327 15.8995 23.3647 16.3049 23.2119 16.7837C23.1476 16.9952 23.1022 17.1703 23.0757 17.3094C23.0487 17.4485 23.0194 17.6292 22.9872 17.8511C22.955 18.073 22.9271 18.2433 22.903 18.3606C22.8467 18.6336 22.7672 18.8229 22.6641 18.9284C22.5609 19.0339 22.4237 19.0869 22.2529 19.0869C22.0821 19.0869 21.9587 19.0301 21.8598 18.9165C21.7609 18.803 21.7112 18.635 21.7112 18.4127C21.7112 18.2414 21.7472 18.0086 21.8196 17.7143C21.8919 17.4201 22.0093 17.0676 22.1725 16.6569C22.3357 16.2463 22.5396 15.8247 22.7847 15.3928C23.0293 14.9608 23.3203 14.5308 23.6576 14.1026H21.5106C21.2859 14.1026 21.1179 14.0619 21.0067 13.9801C20.8956 13.8987 20.8402 13.7709 20.8402 13.5968C20.8402 13.4123 20.8989 13.2931 21.0167 13.2396C21.1345 13.1862 21.2991 13.1592 21.5101 13.1592V13.1597Z" fill="black"/>
</g>
<defs>
<clipPath id="clip0_789_554">
<rect width="32.7135" height="32" fill="white"/>
</clipPath>
</defs>
</svg>
