<svg width="47" height="32" viewBox="0 0 47 32" fill="none" xmlns="http://www.w3.org/2000/svg">
<g clip-path="url(#clip0_789_601)">
<path d="M41.5384 29.6646H3.29516C2.72743 29.6644 2.18301 29.4388 1.78157 29.0374C1.38013 28.6359 1.15453 28.0915 1.15436 27.5238V4.12475C1.15453 3.55702 1.38013 3.0126 1.78157 2.61116C2.18301 2.20972 2.72743 1.98412 3.29516 1.98395H41.5384C42.1062 1.98395 42.6508 2.20948 43.0524 2.61093C43.4539 3.01239 43.6796 3.55691 43.6798 4.12475V27.5238C43.6796 28.0916 43.4539 28.6361 43.0524 29.0376C42.6508 29.4391 42.1062 29.6646 41.5384 29.6646Z" fill="#C3DBB8"/>
<path d="M43.0853 31.8022H4.84272C4.10541 31.8013 3.39852 31.5081 2.87711 30.9868C2.35569 30.4655 2.0623 29.7587 2.06128 29.0214V5.62235C2.0623 4.88504 2.35569 4.17823 2.87711 3.65693C3.39852 3.13563 4.10541 2.8424 4.84272 2.84155H43.0853C43.8225 2.8424 44.5293 3.13565 45.0507 3.65697C45.572 4.17828 45.8652 4.8851 45.8661 5.62235V29.0214C45.8652 29.7586 45.572 30.4655 45.0507 30.9868C44.5293 31.5081 43.8225 31.8013 43.0853 31.8022ZM4.84272 4.12155C4.44478 4.12206 4.06327 4.28032 3.78183 4.56165C3.50038 4.84298 3.34196 5.22441 3.34128 5.62235V29.0214C3.34196 29.4193 3.50038 29.8008 3.78183 30.0821C4.06327 30.3634 4.44478 30.5217 4.84272 30.5222H43.0853C43.4832 30.5217 43.8646 30.3634 44.1459 30.0821C44.4273 29.8007 44.5856 29.4193 44.5861 29.0214V5.62235C44.5856 5.22447 44.4273 4.84303 44.1459 4.56169C43.8646 4.28034 43.4832 4.12206 43.0853 4.12155H4.84272Z" fill="black"/>
<path d="M45.2261 11.3516H2.7019V12.3564H45.2261V11.3516Z" fill="black"/>
<path d="M27.0373 21.8796H23.1154C22.9851 21.875 22.8618 21.82 22.7713 21.7262C22.6808 21.6325 22.6302 21.5072 22.6302 21.3769C22.6302 21.2466 22.6808 21.1214 22.7713 21.0276C22.8618 20.9339 22.9851 20.8789 23.1154 20.8742H27.0373C27.1675 20.8789 27.2908 20.9339 27.3813 21.0276C27.4718 21.1214 27.5224 21.2466 27.5224 21.3769C27.5224 21.5072 27.4718 21.6325 27.3813 21.7262C27.2908 21.82 27.1675 21.875 27.0373 21.8796Z" fill="black"/>
<path d="M20.1336 21.8796H7.93841C7.80818 21.875 7.68484 21.82 7.59436 21.7262C7.50387 21.6325 7.45331 21.5072 7.45331 21.3769C7.45331 21.2466 7.50387 21.1214 7.59436 21.0276C7.68484 20.9339 7.80818 20.8789 7.93841 20.8742H20.1336C20.2638 20.8789 20.3872 20.9339 20.4777 21.0276C20.5681 21.1214 20.6187 21.2466 20.6187 21.3769C20.6187 21.5072 20.5681 21.6325 20.4777 21.7262C20.3872 21.82 20.2638 21.875 20.1336 21.8796Z" fill="black"/>
<path d="M13.8046 24.8812H7.93837C7.80513 24.8812 7.67734 24.8283 7.58312 24.7341C7.48891 24.6398 7.43597 24.512 7.43597 24.3788C7.43597 24.2456 7.48891 24.1178 7.58312 24.0236C7.67734 23.9293 7.80513 23.8764 7.93837 23.8764H13.804C13.9372 23.8764 14.065 23.9293 14.1592 24.0236C14.2534 24.1178 14.3064 24.2456 14.3064 24.3788C14.3064 24.512 14.2534 24.6398 14.1592 24.7341C14.065 24.8283 13.9372 24.8812 13.804 24.8812H13.8046Z" fill="black"/>
<path d="M31.642 23.8131H34.3819V26.5529C34.3819 26.6284 34.4119 26.7009 34.4653 26.7543C34.5187 26.8077 34.5911 26.8377 34.6667 26.8377H37.7387C37.7761 26.8377 37.8131 26.8303 37.8477 26.816C37.8822 26.8017 37.9136 26.7807 37.9401 26.7543C37.9665 26.7278 37.9875 26.6964 38.0018 26.6619C38.0161 26.6273 38.0235 26.5903 38.0235 26.5529V23.8131H40.764C40.8394 23.8129 40.9117 23.7828 40.9649 23.7294C41.0182 23.676 41.0481 23.6037 41.0481 23.5283V20.4563C41.0481 20.3809 41.0182 20.3086 40.9649 20.2553C40.9116 20.202 40.8393 20.1721 40.764 20.1721H38.0184V17.4342C38.0184 17.3587 37.9884 17.2862 37.9349 17.2328C37.8815 17.1794 37.8091 17.1494 37.7336 17.1494H34.6616C34.6242 17.1494 34.5871 17.1568 34.5526 17.1711C34.518 17.1854 34.4866 17.2064 34.4602 17.2328C34.4337 17.2592 34.4127 17.2906 34.3984 17.3252C34.3841 17.3597 34.3768 17.3968 34.3768 17.4342V20.1747H31.642C31.6047 20.1746 31.5676 20.1819 31.5331 20.1961C31.4985 20.2104 31.4671 20.2313 31.4407 20.2577C31.4142 20.2841 31.3933 20.3154 31.3789 20.3499C31.3646 20.3844 31.3572 20.4215 31.3572 20.4588V23.5308C31.3574 23.6063 31.3875 23.6786 31.4408 23.732C31.4942 23.7854 31.5666 23.8155 31.642 23.8156" fill="black"/>
</g>
<defs>
<clipPath id="clip0_789_601">
<rect width="45.9974" height="32" fill="white" transform="translate(0.0664062)"/>
</clipPath>
</defs>
</svg>
