<svg width="28" height="32" viewBox="0 0 28 32" fill="none" xmlns="http://www.w3.org/2000/svg">
<g clip-path="url(#clip0_789_587)">
<path d="M17.7889 2.47881V29.5608C17.7887 29.8598 17.7297 30.1559 17.6152 30.4321C17.5006 30.7083 17.3328 30.9592 17.1212 31.1705C16.9097 31.3819 16.6586 31.5495 16.3822 31.6637C16.1059 31.778 15.8098 31.8367 15.5108 31.8366H2.98915C2.38561 31.8364 1.80684 31.5966 1.38007 31.1699C0.95331 30.7431 0.713502 30.1643 0.713379 29.5608L0.713379 2.47881C0.713502 1.87523 0.953295 1.29641 1.38004 0.86957C1.80679 0.442734 2.38557 0.202823 2.98915 0.202576H15.5108C15.8098 0.202454 16.1059 0.261233 16.3823 0.375558C16.6586 0.489884 16.9097 0.657516 17.1212 0.868884C17.3328 1.08025 17.5006 1.33122 17.6152 1.60745C17.7297 1.88368 17.7887 2.17977 17.7889 2.47881Z" fill="#D6B1EF"/>
<path d="M16.5385 32H4.24044C3.52433 31.9993 2.83777 31.7145 2.33141 31.2081C1.82504 30.7017 1.54024 30.0152 1.53951 29.2991V2.70093C1.54037 1.98487 1.82521 1.29837 2.33154 0.792038C2.83788 0.285701 3.52437 0.000862658 4.24044 0L16.5385 0C17.2545 0.00110844 17.9409 0.286026 18.4472 0.792309C18.9534 1.29859 19.2384 1.98494 19.2395 2.70093V12.8061H18.3081V2.70093C18.3074 2.23184 18.1207 1.78217 17.789 1.45047C17.4573 1.11877 17.0076 0.932095 16.5385 0.931356H4.24044C3.77112 0.931356 3.32102 1.11779 2.98916 1.44965C2.6573 1.78151 2.47086 2.23161 2.47086 2.70093V29.2991C2.47086 29.7684 2.6573 30.2185 2.98916 30.5503C3.32102 30.8822 3.77112 31.0686 4.24044 31.0686H16.5385C17.0076 31.0679 17.4573 30.8812 17.789 30.5495C18.1207 30.2178 18.3074 29.7682 18.3081 29.2991V28.0632H19.2395V29.2991C19.2385 30.0151 18.9536 30.7015 18.4473 31.2078C17.941 31.7141 17.2546 31.999 16.5385 32Z" fill="black"/>
<path d="M12.4009 2.85413H10.4716V3.78548H12.4009V2.85413Z" fill="black"/>
<path d="M9.69445 2.81219H8.78172V3.81154H9.69445V2.81219Z" fill="black"/>
<path d="M19.2516 20.3166H15.7469C15.6234 20.3166 15.5049 20.2675 15.4176 20.1802C15.3303 20.0929 15.2812 19.9744 15.2812 19.8509V12.842C15.2812 12.7185 15.3303 12.6 15.4176 12.5127C15.5049 12.4254 15.6234 12.3763 15.7469 12.3763H19.2516C19.7766 12.3706 20.2975 12.4691 20.7841 12.6661C21.2708 12.863 21.7136 13.1546 22.0868 13.5238C22.4601 13.893 22.7564 14.3326 22.9586 14.8171C23.1608 15.3016 23.265 15.8214 23.265 16.3464C23.265 16.8715 23.1608 17.3913 22.9586 17.8758C22.7564 18.3603 22.4601 18.7999 22.0868 19.1691C21.7136 19.5383 21.2708 19.8298 20.7841 20.0268C20.2975 20.2238 19.7766 20.3223 19.2516 20.3166ZM16.2126 19.3852H19.2516C19.6538 19.3902 20.053 19.3153 20.4261 19.1648C20.7991 19.0143 21.1386 18.7913 21.4248 18.5086C21.711 18.2259 21.9382 17.8893 22.0933 17.5181C22.2484 17.1469 22.3282 16.7487 22.3282 16.3464C22.3282 15.9442 22.2484 15.5459 22.0933 15.1748C21.9382 14.8036 21.711 14.4669 21.4248 14.1843C21.1386 13.9016 20.7991 13.6786 20.4261 13.5281C20.053 13.3776 19.6538 13.3027 19.2516 13.3077H16.2126V19.3852Z" fill="black"/>
<path d="M15.7469 25.2067C15.6234 25.2067 15.5049 25.1576 15.4176 25.0703C15.3303 24.9829 15.2812 24.8645 15.2812 24.741V12.842C15.2812 12.7185 15.3303 12.6 15.4176 12.5127C15.5049 12.4254 15.6234 12.3763 15.7469 12.3763C15.8704 12.3763 15.9889 12.4254 16.0762 12.5127C16.1635 12.6 16.2126 12.7185 16.2126 12.842V24.741C16.2126 24.8645 16.1635 24.9829 16.0762 25.0703C15.9889 25.1576 15.8704 25.2067 15.7469 25.2067Z" fill="black"/>
<path d="M26.6009 28.0678C26.5397 28.068 26.4791 28.056 26.4226 28.0326C26.3661 28.0092 26.3148 27.9748 26.2717 27.9314L18.5209 20.1802C18.4361 20.0924 18.3892 19.9747 18.3902 19.8526C18.3913 19.7305 18.4403 19.6137 18.5266 19.5274C18.6129 19.441 18.7297 19.3921 18.8518 19.391C18.9739 19.3899 19.0916 19.4369 19.1794 19.5217L26.9311 27.2729C26.9962 27.338 27.0405 27.421 27.0585 27.5113C27.0764 27.6017 27.0672 27.6953 27.032 27.7804C26.9967 27.8654 26.9371 27.9382 26.8605 27.9893C26.7839 28.0405 26.6939 28.0678 26.6018 28.0678H26.6009Z" fill="black"/>
<path d="M18.8091 28.5731C18.7051 28.5733 18.6034 28.5427 18.5168 28.4851C18.4302 28.4274 18.3626 28.3454 18.3227 28.2493C18.2828 28.1532 18.2724 28.0475 18.2926 27.9454C18.3129 27.8434 18.363 27.7497 18.4366 27.6762L25.3831 20.7315C25.4816 20.6327 25.6153 20.5771 25.7548 20.5769C25.8943 20.5767 26.0282 20.6319 26.127 20.7304C26.2258 20.8289 26.2815 20.9626 26.2817 21.1021C26.2819 21.2416 26.2267 21.3755 26.1282 21.4743L19.1807 28.4189C19.132 28.4678 19.074 28.5065 19.0103 28.533C18.9465 28.5594 18.8782 28.5731 18.8091 28.5731Z" fill="black"/>
</g>
<defs>
<clipPath id="clip0_789_587">
<rect width="26.3532" height="32" fill="white" transform="translate(0.713379)"/>
</clipPath>
</defs>
</svg>
