<svg width="36" height="32" viewBox="0 0 36 32" fill="none" xmlns="http://www.w3.org/2000/svg">
<g clip-path="url(#clip0_789_615)">
<path d="M21.1682 0.314026H12.7263C5.76204 0.314026 0.0639648 6.0121 0.0639648 12.9764C0.0639648 19.9411 5.76204 25.6392 12.7263 25.6392H20.3239L28.2031 31.2672V23.4884C31.5903 21.2099 33.8311 17.3413 33.8311 12.9764C33.8311 6.01472 28.1325 0.314026 21.1682 0.314026Z" fill="#EFC39C"/>
<path d="M29.453 31.9999C29.3438 31.9999 29.2372 31.9657 29.1484 31.9021L21.4058 26.372H13.9762C10.4692 26.372 7.16061 24.9964 4.66331 22.4986C2.16602 20.0008 0.789917 16.6938 0.789917 13.1852C0.789917 9.67663 2.16497 6.36959 4.66331 3.8723C7.16165 1.375 10.4682 -0.00109863 13.9762 -0.00109863H22.4181C25.9251 -0.00109863 29.2337 1.37448 31.731 3.8723C34.2283 6.37011 35.6044 9.67715 35.6044 13.1852C35.6044 17.4773 33.506 21.49 29.977 23.9726V31.4765C29.977 31.6153 29.9219 31.7485 29.8237 31.8466C29.7255 31.9448 29.5924 31.9999 29.4536 31.9999H29.453ZM13.9762 1.04681C10.7477 1.04681 7.70602 2.31352 5.40292 4.61295C3.09982 6.91239 1.8373 9.95719 1.8373 13.1857C1.8373 16.4142 3.10349 19.459 5.40292 21.759C7.70236 24.059 10.7472 25.3251 13.9757 25.3251H21.5738C21.6829 25.3251 21.7892 25.3592 21.8779 25.4225L28.9296 30.459V23.6978C28.9296 23.6121 28.9507 23.5277 28.9909 23.4521C29.0312 23.3764 29.0894 23.3118 29.1604 23.2639C32.5397 20.9906 34.5581 17.2229 34.5581 13.1857C34.5581 9.95719 33.2919 6.91291 30.9919 4.61295C28.692 2.31299 25.6466 1.04681 22.4181 1.04681H13.9762Z" fill="black"/>
<path d="M12.5693 14.554C12.2987 14.554 12.0341 14.4737 11.8091 14.3234C11.5841 14.173 11.4088 13.9593 11.3052 13.7093C11.2016 13.4593 11.1745 13.1842 11.2273 12.9188C11.2801 12.6534 11.4104 12.4096 11.6018 12.2182C11.7932 12.0269 12.037 11.8966 12.3024 11.8438C12.5678 11.791 12.8429 11.8181 13.0929 11.9216C13.3429 12.0252 13.5566 12.2006 13.707 12.4256C13.8573 12.6506 13.9376 12.9151 13.9376 13.1857C13.9371 13.5485 13.7928 13.8963 13.5363 14.1528C13.2798 14.4093 12.9321 14.5536 12.5693 14.554Z" fill="black"/>
<path d="M18.1972 14.554C17.9266 14.554 17.6621 14.4737 17.4371 14.3234C17.2121 14.173 17.0367 13.9593 16.9331 13.7093C16.8296 13.4593 16.8025 13.1842 16.8553 12.9188C16.9081 12.6534 17.0384 12.4096 17.2297 12.2182C17.4211 12.0269 17.6649 11.8966 17.9303 11.8438C18.1957 11.791 18.4708 11.8181 18.7208 11.9216C18.9709 12.0252 19.1845 12.2006 19.3349 12.4256C19.4852 12.6506 19.5655 12.9151 19.5655 13.1857C19.5651 13.5485 19.4208 13.8963 19.1643 14.1528C18.9078 14.4093 18.56 14.5536 18.1972 14.554Z" fill="black"/>
<path d="M23.8277 14.554C23.5571 14.554 23.2926 14.4737 23.0676 14.3234C22.8426 14.173 22.6672 13.9593 22.5636 13.7093C22.4601 13.4593 22.433 13.1842 22.4858 12.9188C22.5386 12.6534 22.6689 12.4096 22.8602 12.2182C23.0516 12.0269 23.2954 11.8966 23.5608 11.8438C23.8262 11.791 24.1013 11.8181 24.3513 11.9216C24.6013 12.0252 24.815 12.2006 24.9654 12.4256C25.1157 12.6506 25.196 12.9151 25.196 13.1857C25.1957 13.5485 25.0515 13.8964 24.7949 14.1529C24.5384 14.4095 24.1905 14.5537 23.8277 14.554Z" fill="black"/>
</g>
<defs>
<clipPath id="clip0_789_615">
<rect width="35.54" height="32" fill="white" transform="translate(0.0639648)"/>
</clipPath>
</defs>
</svg>
