<svg width="17" height="25" viewBox="0 0 17 25" fill="none" xmlns="http://www.w3.org/2000/svg">
<g clip-path="url(#clip0_282_757)">
<path d="M15.386 24.9854H2.27862C2.08662 24.9854 1.9313 24.8092 1.9313 24.5911V7.23604C1.9313 7.01833 2.08662 6.8421 2.27862 6.8421H15.386C15.578 6.8421 15.7334 7.01833 15.7334 7.23604V24.5911C15.7334 24.8092 15.578 24.9854 15.386 24.9854ZM2.62593 24.1968H15.0374V7.63033H2.62593V24.1968Z" fill="black"/>
<path d="M16.4184 7.63037H1.5353C1.3433 7.63037 1.18799 7.45414 1.18799 7.23608V4.41711C1.18799 4.1994 1.3433 4.02283 1.5353 4.02283H5.66673C5.85873 4.02283 6.01405 4.1994 6.01405 4.41711C6.01405 4.63483 5.85873 4.8114 5.66673 4.8114H1.88262V6.84214H16.0711V4.8114H13.4654C13.2734 4.8114 13.118 4.63517 13.118 4.41711C13.118 4.19906 13.2734 4.02283 13.4654 4.02283H16.4184C16.6104 4.02283 16.7657 4.1994 16.7657 4.41711V7.23608C16.7657 7.45414 16.6104 7.63037 16.4184 7.63037Z" fill="black"/>
<path d="M14.1555 4.81139H13.4657C13.2737 4.81139 13.1184 4.63516 13.1184 4.4171C13.1184 4.19904 13.2737 4.02281 13.4657 4.02281H13.8085V1.99276H4.14546V4.02281H5.66706C5.85906 4.02281 6.01437 4.19939 6.01437 4.4171C6.01437 4.63481 5.85906 4.81139 5.66706 4.81139H3.79814C3.60649 4.81139 3.45117 4.63516 3.45117 4.4171V1.59847C3.45117 1.38076 3.60649 1.20453 3.79814 1.20453H14.1555C14.3475 1.20453 14.5028 1.38076 14.5028 1.59847V4.4171C14.5028 4.63516 14.3475 4.81139 14.1555 4.81139Z" fill="black"/>
<path d="M7.99508 21.4739H2.27862C2.08662 21.4739 1.9313 21.2976 1.9313 21.0796V10.4102C1.9313 10.1922 2.08662 10.0159 2.27862 10.0159H7.99508C8.18708 10.0159 8.34239 10.1922 8.34239 10.4102V21.0796C8.34239 21.2976 8.18708 21.4739 7.99508 21.4739ZM2.62593 20.6853H7.64776V10.8045H2.62593V20.6853Z" fill="black"/>
</g>
<defs>
<clipPath id="clip0_282_757">
<rect width="16.7657" height="24" fill="white" transform="translate(0 0.985474)"/>
</clipPath>
</defs>
</svg>
