<svg width="25" height="25" viewBox="0 0 25 25" fill="none" xmlns="http://www.w3.org/2000/svg">
<g clip-path="url(#clip0_282_743)">
<path d="M12.5938 16.1872C12.5938 16.1872 17.848 13.1685 17.848 10.2593C17.848 8.69659 16.5816 7.43011 15.0189 7.43011C13.9879 7.43011 13.0882 7.98365 12.5938 8.80762C12.0993 7.98326 11.1996 7.43011 10.1687 7.43011C8.60601 7.43011 7.33954 8.69699 7.33954 10.2593C7.33954 13.1685 12.5938 16.1872 12.5938 16.1872Z" fill="black"/>
<path d="M12.5938 24.9855C12.4851 24.9855 12.3813 24.9407 12.3063 24.8622L10.1885 22.6314H6.0691C3.14558 22.6314 0.767265 20.4462 0.767265 17.7602V5.85675C0.766869 3.17074 3.14558 0.985535 6.0687 0.985535H19.1189C22.0424 0.985535 24.4207 3.17074 24.4207 5.85675V17.7602C24.4207 20.4462 22.0424 22.6314 19.1189 22.6314H14.9995L12.8817 24.8622C12.8067 24.9411 12.7028 24.9855 12.5942 24.9855H12.5938ZM6.0687 1.77857C3.58254 1.77857 1.5599 3.6081 1.5599 5.85675V17.7602C1.5599 20.0088 3.58254 21.8384 6.0687 21.8384H10.3586C10.4673 21.8384 10.5712 21.8832 10.6461 21.9617L12.5938 24.0133L14.5415 21.9617C14.6164 21.8828 14.7203 21.8384 14.829 21.8384H19.1189C21.605 21.8384 23.6277 20.0088 23.6277 17.7602V5.85675C23.6277 3.6081 21.605 1.77857 19.1189 1.77857H6.0687Z" fill="black"/>
</g>
<defs>
<clipPath id="clip0_282_743">
<rect width="24.4207" height="24" fill="white" transform="translate(0 0.985474)"/>
</clipPath>
</defs>
</svg>
