<svg width="84" height="23" viewBox="0 0 84 23" fill="none" xmlns="http://www.w3.org/2000/svg">
<g clip-path="url(#clip0_1118_1459)">
<path d="M74.7377 0.5H72.4065L66.5786 8.94186L60.9534 0.5H58.3688L65.3117 10.4256L57.1526 22.193H59.5344L66.5786 11.9605L73.6228 22.193H75.9539L67.8455 10.4256L74.7377 0.5Z" fill="black"/>
<path d="M83.5556 19.8395C83.5556 19.686 83.5556 19.5325 83.5556 19.4302V19.379C83.5556 19.3279 83.5049 19.2767 83.5049 19.2256C83.5049 18.9697 83.5049 18.6628 83.5049 18.407C83.5049 18.3046 83.5049 18.1511 83.4036 18.1C83.3529 18.0488 83.3022 17.9976 83.3022 17.8953C83.3022 17.7418 83.2009 17.6395 83.0995 17.5883L83.0488 17.5372C82.9475 17.4349 82.9981 17.2814 82.8968 17.2302C82.8461 17.179 82.7954 17.0767 82.6941 17.0256C82.5421 16.9744 82.4407 16.8209 82.2887 16.7697C82.238 16.7697 82.238 16.7186 82.238 16.6674C82.1366 16.6674 82.086 16.6163 82.0353 16.5651C81.9339 16.5139 81.8326 16.4628 81.7312 16.4116C81.6299 16.3604 81.4271 16.3604 81.2751 16.3093C81.1738 16.3093 81.0724 16.3604 81.0217 16.207H80.971C80.819 16.207 80.667 16.207 80.515 16.207C80.515 16.207 80.4643 16.207 80.4643 16.2581C80.4136 16.3093 80.4136 16.3093 80.3629 16.2581C80.3122 16.207 80.2109 16.1046 80.1095 16.1558C80.0589 16.1558 80.0082 16.207 79.9575 16.207C79.8055 16.2581 79.6028 16.1558 79.4 16.3093C79.3494 16.3604 79.248 16.3604 79.1467 16.3604C79.0453 16.4116 78.9439 16.5139 78.8426 16.4628C78.7919 16.4628 78.7412 16.5139 78.7412 16.5139C78.6906 16.6163 78.5892 16.6163 78.4879 16.6674C78.4372 16.7186 78.3358 16.7697 78.2345 16.8209C78.1838 16.8209 78.1838 16.8721 78.1838 16.8721C78.0824 16.8721 78.0824 16.9744 77.9811 17.0256C77.8797 17.0767 77.829 17.179 77.7784 17.2814C77.7277 17.3837 77.6263 17.486 77.5757 17.5372C77.525 17.5883 77.4743 17.6395 77.4743 17.7418C77.4743 17.7418 77.4743 17.7418 77.4236 17.7418C77.2716 17.793 77.2716 17.9977 77.1702 18.1C77.1196 18.1511 77.1196 18.3046 77.0689 18.407V18.4581C76.9675 18.5093 77.0182 18.6116 76.9675 18.6628C76.9675 18.7139 76.9675 18.7651 76.9168 18.8163C76.9168 18.8674 76.8662 18.9186 76.8662 18.9186C76.8662 19.0721 76.9168 19.2256 76.8662 19.3279C76.8155 19.4814 76.8155 19.6349 76.8155 19.7372C76.8155 19.7883 76.8155 19.7883 76.8155 19.8395C76.8662 19.8907 76.8662 19.9418 76.8155 19.993V20.0442C76.8155 20.0953 76.8662 20.1976 76.8662 20.2488V20.3C76.9675 20.3 76.9675 20.3511 76.9168 20.4023C76.8662 20.5558 77.0182 20.607 77.0182 20.7604C77.0182 20.8116 77.0689 20.8628 77.0689 20.9139C77.1702 21.0163 77.2209 21.1186 77.3223 21.1697C77.3729 21.2209 77.4236 21.3232 77.525 21.2721L77.5757 21.3232C77.5757 21.3744 77.6263 21.4256 77.677 21.4256C77.7277 21.4256 77.829 21.4767 77.8797 21.5279C77.9811 21.579 78.0824 21.6302 78.1331 21.6814C78.2345 21.7325 78.3865 21.7325 78.4879 21.7325C78.4879 21.7325 78.4879 21.7325 78.5385 21.7837L78.5892 21.8349C78.6399 21.886 78.7412 21.9372 78.7919 21.9883C78.8426 22.0395 78.8933 22.0907 78.9946 22.0907C79.1467 22.1418 79.2987 22.1418 79.5014 22.1418C79.5521 22.1418 79.6028 22.1418 79.6028 22.193C79.6534 22.193 79.7041 22.2442 79.7041 22.2442C79.8055 22.2953 79.9068 22.193 80.0082 22.193C80.2109 22.193 80.4136 22.193 80.667 22.193C80.7177 22.193 80.7177 22.2442 80.7683 22.2442C80.819 22.2442 80.8697 22.193 80.9204 22.193C81.1231 22.1418 81.3765 22.1418 81.5792 22.0907H81.6299C81.6805 22.0395 81.7819 21.9883 81.8326 21.9372C81.9339 21.886 82.086 21.8349 82.1873 21.7837C82.1873 21.7837 82.238 21.7325 82.2887 21.7325C82.3393 21.6814 82.4407 21.6814 82.4914 21.6302C82.542 21.579 82.5927 21.4767 82.6941 21.4256C82.8461 21.3232 82.8968 21.1697 82.9981 21.0674C83.0488 21.0163 83.0488 21.0163 83.0995 20.9651C83.1502 20.8628 83.2009 20.8116 83.2009 20.7093C83.2009 20.6581 83.2009 20.607 83.2515 20.5558C83.3529 20.4535 83.3529 20.2488 83.4036 20.0953C83.5049 20.0953 83.4542 19.993 83.5556 19.8395ZM78.7919 20.3511C78.7412 20.3511 78.6906 20.4023 78.5892 20.4535C78.5892 20.5046 78.5385 20.5558 78.5385 20.5558C78.5385 20.5046 78.4879 20.4535 78.4879 20.4023C78.4879 20.2488 78.4879 20.1465 78.4879 19.993C78.4879 19.9418 78.5385 19.9418 78.5385 19.8907C78.5385 19.8907 78.5892 19.8907 78.5892 19.8395C78.5385 19.7372 78.6906 19.686 78.6906 19.5837L78.7412 19.5325C78.7412 19.5325 78.7412 19.5325 78.7919 19.5837C78.8426 19.7372 78.8933 19.8395 78.9439 19.993V20.0442C78.8933 20.1465 78.8426 20.2488 78.7919 20.3511ZM80.2109 18.0488C80.2616 17.9976 80.3122 17.9465 80.3629 17.9465C80.4136 17.9465 80.4136 17.9465 80.4643 17.8953C80.5149 17.8953 80.515 17.8442 80.5656 17.8442C80.6163 17.8442 80.6163 17.793 80.667 17.793C80.7177 17.793 80.7177 17.8442 80.7177 17.8442V17.8953C80.7177 17.9976 80.7177 18.0488 80.7683 18.1511C80.819 18.2023 80.7683 18.3558 80.7683 18.4581C80.7177 18.4581 80.6163 18.5093 80.5656 18.407C80.5656 18.407 80.5149 18.407 80.4643 18.407C80.3629 18.407 80.2616 18.407 80.1602 18.407C80.1095 18.407 80.0082 18.3558 79.9575 18.3046C80.0589 18.1511 80.1095 18.1 80.2109 18.0488ZM80.1602 19.993C80.0589 20.0442 80.0082 20.0953 79.9068 20.1465C79.8055 20.1465 79.7548 20.2488 79.6534 20.3C79.6028 20.3 79.6028 20.3 79.5521 20.3C79.5521 19.9418 79.5521 19.5837 79.5521 19.2256C79.5521 19.1232 79.6534 18.9697 79.7041 18.8674H79.7548C79.9068 18.8674 80.0589 18.8163 80.1602 18.8674C80.3122 18.9186 80.4136 18.9186 80.5656 18.9697C80.667 19.0209 80.7177 19.1744 80.667 19.2767C80.667 19.3279 80.6163 19.379 80.6163 19.379C80.6163 19.4302 80.6163 19.4814 80.5656 19.5325C80.515 19.5325 80.515 19.6349 80.515 19.686C80.4136 19.7883 80.3122 19.9418 80.1602 19.993ZM81.4271 20.0953C81.3258 20.1976 81.3765 20.3 81.2751 20.3511V20.4023C81.2751 20.5046 81.1738 20.607 81.1231 20.7093H81.0724C80.9204 20.7093 80.8697 20.8116 80.7683 20.8628C80.7177 20.9139 80.5656 20.8628 80.515 20.8628C80.515 20.8116 80.515 20.8116 80.5656 20.8116C80.667 20.7604 80.7177 20.6581 80.819 20.607C80.8697 20.607 80.8697 20.5558 80.9204 20.5558C80.971 20.4535 81.0724 20.4023 81.1738 20.3C81.2244 20.1976 81.2751 20.0953 81.3258 20.0442C81.3765 19.993 81.3765 19.8395 81.4778 19.8907C81.4778 19.9418 81.4778 20.0442 81.4271 20.0953ZM82.39 19.1744C82.39 19.1744 82.39 19.2256 82.3393 19.2767C82.2887 19.3279 82.2887 19.379 82.238 19.4302H82.1873V19.379C82.1873 19.2256 82.1873 19.1232 82.1873 18.9697C82.1873 18.9186 82.1366 18.9186 82.1366 18.8674C82.1366 18.8674 82.1366 18.8163 82.086 18.8163C82.0353 18.6628 82.0353 18.5093 81.9846 18.407C81.9846 18.3558 81.9339 18.3558 81.9339 18.3046C81.9339 18.2535 81.8832 18.2023 81.8832 18.2023C81.8832 18.2023 81.8832 18.2023 81.9339 18.1511C81.9846 18.2023 82.086 18.2023 82.1366 18.2535C82.1873 18.3558 82.238 18.4581 82.3393 18.5604C82.3393 18.6116 82.3393 18.6116 82.3393 18.6628C82.3393 18.7139 82.3393 18.8163 82.39 18.8674C82.4407 18.8674 82.4407 19.1232 82.39 19.1744Z" fill="black"/>
<path d="M55.1762 17.2814C55.1255 14.5698 54.3653 12.7791 51.6794 11.807C54.3147 10.9884 56.0377 9.3 56.0377 6.38372C56.0377 2.59767 52.7943 0.5 49.2469 0.5H39.9222V22.193H42.0507V12.7791H48.1827C51.274 12.7791 52.7943 14.0581 52.845 17.2302C52.8957 18.714 52.9464 20.8116 53.5545 22.193H56.1897V21.8349C55.7843 21.3233 55.4802 20.7605 55.3789 20.0442C55.2775 19.3791 55.2268 18.4581 55.1762 17.2814ZM42.0507 10.7837V2.49535H48.9935C51.6287 2.49535 53.7065 3.77442 53.7065 6.63953C53.7065 9.45349 51.6287 10.7837 48.9935 10.7837H42.0507Z" fill="black"/>
<path d="M36.0201 13.1372C36.0201 17.486 33.993 20.5047 29.3813 20.5047C24.8204 20.5047 22.7426 17.486 22.7426 13.1372V0.5H20.6141V13.4953C20.6141 18.714 23.9589 22.5 29.3813 22.5C34.6518 22.5 38.1486 18.9698 38.1486 13.4953V0.5H36.0201V13.1372Z" fill="black"/>
<path d="M16.7119 20.8116L4.09324 0.5H0.444458V22.193H2.57291V1.8814L15.1916 22.193H18.8911V0.5H16.7119V20.8116Z" fill="black"/>
</g>
<defs>
<clipPath id="clip0_1118_1459">
<rect width="83.1111" height="22" fill="white" transform="translate(0.444458 0.5)"/>
</clipPath>
</defs>
</svg>
